<mxfile host="app.diagrams.net" modified="2022-05-10T01:58:35.695Z" agent="5.0 (Macintosh; Intel Mac OS X 10_15_7) AppleWebKit/537.36 (KHTML, like Gecko) Chrome/100.0.4896.127 Safari/537.36" etag="hUcDT3yYNtnt1i3EQFn2" version="17.4.5" type="github" pages="2">
  <diagram id="C5RBs43oDa-KdzZeNtuy" name="Page-1">
    <mxGraphModel dx="1455" dy="754" grid="1" gridSize="10" guides="1" tooltips="1" connect="1" arrows="1" fold="1" page="1" pageScale="1" pageWidth="827" pageHeight="1169" math="0" shadow="0">
      <root>
        <mxCell id="WIyWlLk6GJQsqaUBKTNV-0" />
        <mxCell id="WIyWlLk6GJQsqaUBKTNV-1" parent="WIyWlLk6GJQsqaUBKTNV-0" />
        <mxCell id="0jGsmCRGgMfs_v6Xthzk-1" value="" style="rounded=0;whiteSpace=wrap;html=1;" vertex="1" parent="WIyWlLk6GJQsqaUBKTNV-1">
          <mxGeometry x="39" y="170" width="750" height="420" as="geometry" />
        </mxCell>
        <mxCell id="0jGsmCRGgMfs_v6Xthzk-2" value="" style="rounded=1;whiteSpace=wrap;html=1;" vertex="1" parent="WIyWlLk6GJQsqaUBKTNV-1">
          <mxGeometry x="99" y="230" width="470" height="190" as="geometry" />
        </mxCell>
        <mxCell id="0jGsmCRGgMfs_v6Xthzk-3" value="" style="rounded=1;whiteSpace=wrap;html=1;" vertex="1" parent="WIyWlLk6GJQsqaUBKTNV-1">
          <mxGeometry x="629" y="245" width="140" height="100" as="geometry" />
        </mxCell>
        <mxCell id="0jGsmCRGgMfs_v6Xthzk-4" value="&lt;font style=&quot;font-size: 24px&quot;&gt;&lt;b&gt;office平台&lt;/b&gt;&lt;/font&gt;" style="text;html=1;strokeColor=none;fillColor=none;align=center;verticalAlign=middle;whiteSpace=wrap;rounded=0;" vertex="1" parent="WIyWlLk6GJQsqaUBKTNV-1">
          <mxGeometry x="49" y="560" width="116" height="30" as="geometry" />
        </mxCell>
        <mxCell id="0jGsmCRGgMfs_v6Xthzk-5" value="&lt;font style=&quot;font-size: 18px&quot;&gt;DC数据平台&lt;/font&gt;&amp;nbsp;" style="text;html=1;strokeColor=none;fillColor=none;align=center;verticalAlign=middle;whiteSpace=wrap;rounded=0;fontFamily=Helvetica;fontSize=24;" vertex="1" parent="WIyWlLk6GJQsqaUBKTNV-1">
          <mxGeometry x="91.5" y="380" width="155" height="30" as="geometry" />
        </mxCell>
        <mxCell id="0jGsmCRGgMfs_v6Xthzk-6" value="OSS消息" style="text;html=1;strokeColor=none;fillColor=none;align=center;verticalAlign=middle;whiteSpace=wrap;rounded=0;fontFamily=Helvetica;fontSize=18;" vertex="1" parent="WIyWlLk6GJQsqaUBKTNV-1">
          <mxGeometry x="639" y="320" width="140" height="30" as="geometry" />
        </mxCell>
        <mxCell id="0jGsmCRGgMfs_v6Xthzk-11" value="" style="edgeStyle=orthogonalEdgeStyle;rounded=0;orthogonalLoop=1;jettySize=auto;html=1;fontFamily=Helvetica;fontSize=18;" edge="1" parent="WIyWlLk6GJQsqaUBKTNV-1" source="0jGsmCRGgMfs_v6Xthzk-7" target="0jGsmCRGgMfs_v6Xthzk-9">
          <mxGeometry relative="1" as="geometry" />
        </mxCell>
        <mxCell id="0jGsmCRGgMfs_v6Xthzk-12" value="&lt;font style=&quot;font-size: 12px&quot;&gt;trigger&lt;/font&gt;" style="edgeLabel;html=1;align=center;verticalAlign=middle;resizable=0;points=[];fontSize=18;fontFamily=Helvetica;" vertex="1" connectable="0" parent="0jGsmCRGgMfs_v6Xthzk-11">
          <mxGeometry x="-0.08" relative="1" as="geometry">
            <mxPoint as="offset" />
          </mxGeometry>
        </mxCell>
        <mxCell id="0jGsmCRGgMfs_v6Xthzk-7" value="调度中心" style="rounded=1;whiteSpace=wrap;html=1;fontFamily=Helvetica;fontSize=18;" vertex="1" parent="WIyWlLk6GJQsqaUBKTNV-1">
          <mxGeometry x="119" y="270" width="100" height="50" as="geometry" />
        </mxCell>
        <mxCell id="0jGsmCRGgMfs_v6Xthzk-8" value="Hive" style="shape=cylinder3;whiteSpace=wrap;html=1;boundedLbl=1;backgroundOutline=1;size=15;fontFamily=Helvetica;fontSize=18;" vertex="1" parent="WIyWlLk6GJQsqaUBKTNV-1">
          <mxGeometry x="246.5" y="460" width="86" height="90" as="geometry" />
        </mxCell>
        <mxCell id="0jGsmCRGgMfs_v6Xthzk-14" style="edgeStyle=orthogonalEdgeStyle;rounded=0;orthogonalLoop=1;jettySize=auto;html=1;exitX=0;exitY=1;exitDx=0;exitDy=0;fontFamily=Helvetica;fontSize=12;entryX=0.5;entryY=0;entryDx=0;entryDy=0;entryPerimeter=0;" edge="1" parent="WIyWlLk6GJQsqaUBKTNV-1" source="0jGsmCRGgMfs_v6Xthzk-9" target="0jGsmCRGgMfs_v6Xthzk-8">
          <mxGeometry relative="1" as="geometry" />
        </mxCell>
        <mxCell id="0jGsmCRGgMfs_v6Xthzk-15" value="查询用户集" style="edgeLabel;html=1;align=center;verticalAlign=middle;resizable=0;points=[];fontSize=12;fontFamily=Helvetica;" vertex="1" connectable="0" parent="0jGsmCRGgMfs_v6Xthzk-14">
          <mxGeometry x="0.0166" y="-2" relative="1" as="geometry">
            <mxPoint as="offset" />
          </mxGeometry>
        </mxCell>
        <mxCell id="0jGsmCRGgMfs_v6Xthzk-21" value="" style="edgeStyle=orthogonalEdgeStyle;rounded=0;orthogonalLoop=1;jettySize=auto;html=1;fontFamily=Helvetica;fontSize=12;" edge="1" parent="WIyWlLk6GJQsqaUBKTNV-1" source="0jGsmCRGgMfs_v6Xthzk-9" target="0jGsmCRGgMfs_v6Xthzk-20">
          <mxGeometry relative="1" as="geometry" />
        </mxCell>
        <mxCell id="0jGsmCRGgMfs_v6Xthzk-22" value="父子triiger" style="edgeLabel;html=1;align=center;verticalAlign=middle;resizable=0;points=[];fontSize=12;fontFamily=Helvetica;" vertex="1" connectable="0" parent="0jGsmCRGgMfs_v6Xthzk-21">
          <mxGeometry x="-0.12" y="3" relative="1" as="geometry">
            <mxPoint as="offset" />
          </mxGeometry>
        </mxCell>
        <mxCell id="0jGsmCRGgMfs_v6Xthzk-9" value="query任务" style="rounded=1;whiteSpace=wrap;html=1;fontFamily=Helvetica;fontSize=18;" vertex="1" parent="WIyWlLk6GJQsqaUBKTNV-1">
          <mxGeometry x="289" y="270" width="100" height="50" as="geometry" />
        </mxCell>
        <mxCell id="0jGsmCRGgMfs_v6Xthzk-13" value="MySQL" style="shape=cylinder3;whiteSpace=wrap;html=1;boundedLbl=1;backgroundOutline=1;size=15;fontFamily=Helvetica;fontSize=18;" vertex="1" parent="WIyWlLk6GJQsqaUBKTNV-1">
          <mxGeometry x="370" y="460" width="120" height="90" as="geometry" />
        </mxCell>
        <mxCell id="0jGsmCRGgMfs_v6Xthzk-16" value="" style="endArrow=classic;html=1;rounded=0;fontFamily=Helvetica;fontSize=12;entryX=0.145;entryY=0;entryDx=0;entryDy=4.35;entryPerimeter=0;exitX=0.89;exitY=0.98;exitDx=0;exitDy=0;exitPerimeter=0;" edge="1" parent="WIyWlLk6GJQsqaUBKTNV-1" source="0jGsmCRGgMfs_v6Xthzk-9" target="0jGsmCRGgMfs_v6Xthzk-13">
          <mxGeometry width="50" height="50" relative="1" as="geometry">
            <mxPoint x="389" y="430" as="sourcePoint" />
            <mxPoint x="439" y="380" as="targetPoint" />
          </mxGeometry>
        </mxCell>
        <mxCell id="0jGsmCRGgMfs_v6Xthzk-17" value="存储用户" style="edgeLabel;html=1;align=center;verticalAlign=middle;resizable=0;points=[];fontSize=12;fontFamily=Helvetica;" vertex="1" connectable="0" parent="0jGsmCRGgMfs_v6Xthzk-16">
          <mxGeometry x="-0.1489" relative="1" as="geometry">
            <mxPoint as="offset" />
          </mxGeometry>
        </mxCell>
        <mxCell id="0jGsmCRGgMfs_v6Xthzk-29" value="" style="edgeStyle=orthogonalEdgeStyle;rounded=0;orthogonalLoop=1;jettySize=auto;html=1;fontFamily=Helvetica;fontSize=12;entryX=0;entryY=0.5;entryDx=0;entryDy=0;" edge="1" parent="WIyWlLk6GJQsqaUBKTNV-1" source="0jGsmCRGgMfs_v6Xthzk-20" target="0jGsmCRGgMfs_v6Xthzk-3">
          <mxGeometry relative="1" as="geometry" />
        </mxCell>
        <mxCell id="0jGsmCRGgMfs_v6Xthzk-30" value="&lt;font style=&quot;font-size: 14px&quot;&gt;call&lt;/font&gt;" style="edgeLabel;html=1;align=center;verticalAlign=middle;resizable=0;points=[];fontSize=12;fontFamily=Helvetica;" vertex="1" connectable="0" parent="0jGsmCRGgMfs_v6Xthzk-29">
          <mxGeometry x="0.3429" y="4" relative="1" as="geometry">
            <mxPoint as="offset" />
          </mxGeometry>
        </mxCell>
        <mxCell id="0jGsmCRGgMfs_v6Xthzk-20" value="send任务" style="rounded=1;whiteSpace=wrap;html=1;fontFamily=Helvetica;fontSize=18;" vertex="1" parent="WIyWlLk6GJQsqaUBKTNV-1">
          <mxGeometry x="459" y="270" width="100" height="50" as="geometry" />
        </mxCell>
        <mxCell id="0jGsmCRGgMfs_v6Xthzk-23" value="" style="endArrow=classic;html=1;rounded=0;fontFamily=Helvetica;fontSize=12;entryX=0.5;entryY=1;entryDx=0;entryDy=0;exitX=0.855;exitY=0;exitDx=0;exitDy=4.35;exitPerimeter=0;" edge="1" parent="WIyWlLk6GJQsqaUBKTNV-1" source="0jGsmCRGgMfs_v6Xthzk-13" target="0jGsmCRGgMfs_v6Xthzk-20">
          <mxGeometry width="50" height="50" relative="1" as="geometry">
            <mxPoint x="449" y="400" as="sourcePoint" />
            <mxPoint x="499" y="350" as="targetPoint" />
          </mxGeometry>
        </mxCell>
        <mxCell id="0jGsmCRGgMfs_v6Xthzk-24" value="查询用户集" style="edgeLabel;html=1;align=center;verticalAlign=middle;resizable=0;points=[];fontSize=12;fontFamily=Helvetica;" vertex="1" connectable="0" parent="0jGsmCRGgMfs_v6Xthzk-23">
          <mxGeometry x="0.1977" y="-4" relative="1" as="geometry">
            <mxPoint as="offset" />
          </mxGeometry>
        </mxCell>
        <mxCell id="0jGsmCRGgMfs_v6Xthzk-31" value="user" style="shape=umlActor;verticalLabelPosition=bottom;verticalAlign=top;html=1;outlineConnect=0;fontFamily=Helvetica;fontSize=14;" vertex="1" parent="WIyWlLk6GJQsqaUBKTNV-1">
          <mxGeometry x="680" y="50" width="30" height="60" as="geometry" />
        </mxCell>
        <mxCell id="0jGsmCRGgMfs_v6Xthzk-33" value="" style="endArrow=classic;html=1;rounded=0;fontFamily=Helvetica;fontSize=14;exitX=0.5;exitY=0;exitDx=0;exitDy=0;" edge="1" parent="WIyWlLk6GJQsqaUBKTNV-1" source="0jGsmCRGgMfs_v6Xthzk-3" target="0jGsmCRGgMfs_v6Xthzk-31">
          <mxGeometry width="50" height="50" relative="1" as="geometry">
            <mxPoint x="670" y="240" as="sourcePoint" />
            <mxPoint x="720" y="190" as="targetPoint" />
          </mxGeometry>
        </mxCell>
        <mxCell id="0jGsmCRGgMfs_v6Xthzk-34" value="Push &amp;amp; Email" style="edgeLabel;html=1;align=center;verticalAlign=middle;resizable=0;points=[];fontSize=14;fontFamily=Helvetica;" vertex="1" connectable="0" parent="0jGsmCRGgMfs_v6Xthzk-33">
          <mxGeometry x="-0.3108" y="1" relative="1" as="geometry">
            <mxPoint as="offset" />
          </mxGeometry>
        </mxCell>
      </root>
    </mxGraphModel>
  </diagram>
  <diagram id="wjvMj9Nch7RKc-PUQ0W6" name="第 2 页">
    <mxGraphModel dx="728" dy="377" grid="1" gridSize="10" guides="1" tooltips="1" connect="1" arrows="1" fold="1" page="1" pageScale="1" pageWidth="827" pageHeight="1169" math="0" shadow="0">
      <root>
        <mxCell id="0" />
        <mxCell id="1" parent="0" />
        <mxCell id="RfKFc-p_H9gRxyAXx0Jz-1" value="" style="rounded=0;whiteSpace=wrap;html=1;" vertex="1" parent="1">
          <mxGeometry x="39" y="170" width="750" height="420" as="geometry" />
        </mxCell>
        <mxCell id="RfKFc-p_H9gRxyAXx0Jz-2" value="" style="rounded=1;whiteSpace=wrap;html=1;" vertex="1" parent="1">
          <mxGeometry x="99" y="230" width="470" height="190" as="geometry" />
        </mxCell>
        <mxCell id="RfKFc-p_H9gRxyAXx0Jz-3" value="" style="rounded=1;whiteSpace=wrap;html=1;" vertex="1" parent="1">
          <mxGeometry x="629" y="245" width="140" height="100" as="geometry" />
        </mxCell>
        <mxCell id="RfKFc-p_H9gRxyAXx0Jz-4" value="&lt;font style=&quot;font-size: 24px&quot;&gt;&lt;b&gt;office平台&lt;/b&gt;&lt;/font&gt;" style="text;html=1;strokeColor=none;fillColor=none;align=center;verticalAlign=middle;whiteSpace=wrap;rounded=0;" vertex="1" parent="1">
          <mxGeometry x="49" y="560" width="116" height="30" as="geometry" />
        </mxCell>
        <mxCell id="RfKFc-p_H9gRxyAXx0Jz-5" value="&lt;font style=&quot;font-size: 18px&quot;&gt;DC数据平台&lt;/font&gt;&amp;nbsp;" style="text;html=1;strokeColor=none;fillColor=none;align=center;verticalAlign=middle;whiteSpace=wrap;rounded=0;fontFamily=Helvetica;fontSize=24;" vertex="1" parent="1">
          <mxGeometry x="91.5" y="380" width="155" height="30" as="geometry" />
        </mxCell>
        <mxCell id="RfKFc-p_H9gRxyAXx0Jz-6" value="&lt;font style=&quot;font-size: 14px&quot;&gt;quotes-opration-alert&lt;/font&gt;" style="text;html=1;strokeColor=none;fillColor=none;align=center;verticalAlign=middle;whiteSpace=wrap;rounded=0;fontFamily=Helvetica;fontSize=18;" vertex="1" parent="1">
          <mxGeometry x="629" y="290" width="140" height="30" as="geometry" />
        </mxCell>
        <mxCell id="RfKFc-p_H9gRxyAXx0Jz-7" value="" style="edgeStyle=orthogonalEdgeStyle;rounded=0;orthogonalLoop=1;jettySize=auto;html=1;fontFamily=Helvetica;fontSize=18;" edge="1" parent="1" source="RfKFc-p_H9gRxyAXx0Jz-9" target="RfKFc-p_H9gRxyAXx0Jz-15">
          <mxGeometry relative="1" as="geometry" />
        </mxCell>
        <mxCell id="RfKFc-p_H9gRxyAXx0Jz-8" value="&lt;font style=&quot;font-size: 12px&quot;&gt;trigger&lt;/font&gt;" style="edgeLabel;html=1;align=center;verticalAlign=middle;resizable=0;points=[];fontSize=18;fontFamily=Helvetica;" vertex="1" connectable="0" parent="RfKFc-p_H9gRxyAXx0Jz-7">
          <mxGeometry x="-0.08" relative="1" as="geometry">
            <mxPoint as="offset" />
          </mxGeometry>
        </mxCell>
        <mxCell id="RfKFc-p_H9gRxyAXx0Jz-9" value="调度中心" style="rounded=1;whiteSpace=wrap;html=1;fontFamily=Helvetica;fontSize=18;" vertex="1" parent="1">
          <mxGeometry x="119" y="270" width="100" height="50" as="geometry" />
        </mxCell>
        <mxCell id="RfKFc-p_H9gRxyAXx0Jz-10" value="Hive" style="shape=cylinder3;whiteSpace=wrap;html=1;boundedLbl=1;backgroundOutline=1;size=15;fontFamily=Helvetica;fontSize=18;" vertex="1" parent="1">
          <mxGeometry x="270" y="460" width="86" height="90" as="geometry" />
        </mxCell>
        <mxCell id="RfKFc-p_H9gRxyAXx0Jz-11" style="edgeStyle=orthogonalEdgeStyle;rounded=0;orthogonalLoop=1;jettySize=auto;html=1;exitX=0.25;exitY=1;exitDx=0;exitDy=0;fontFamily=Helvetica;fontSize=12;entryX=0.5;entryY=0;entryDx=0;entryDy=0;entryPerimeter=0;" edge="1" parent="1" source="RfKFc-p_H9gRxyAXx0Jz-15" target="RfKFc-p_H9gRxyAXx0Jz-10">
          <mxGeometry relative="1" as="geometry" />
        </mxCell>
        <mxCell id="RfKFc-p_H9gRxyAXx0Jz-12" value="查询用户集" style="edgeLabel;html=1;align=center;verticalAlign=middle;resizable=0;points=[];fontSize=12;fontFamily=Helvetica;" vertex="1" connectable="0" parent="RfKFc-p_H9gRxyAXx0Jz-11">
          <mxGeometry x="0.0166" y="-2" relative="1" as="geometry">
            <mxPoint as="offset" />
          </mxGeometry>
        </mxCell>
        <mxCell id="RfKFc-p_H9gRxyAXx0Jz-13" value="" style="edgeStyle=orthogonalEdgeStyle;rounded=0;orthogonalLoop=1;jettySize=auto;html=1;fontFamily=Helvetica;fontSize=12;" edge="1" parent="1" source="RfKFc-p_H9gRxyAXx0Jz-15" target="RfKFc-p_H9gRxyAXx0Jz-21">
          <mxGeometry relative="1" as="geometry" />
        </mxCell>
        <mxCell id="RfKFc-p_H9gRxyAXx0Jz-14" value="父子triiger" style="edgeLabel;html=1;align=center;verticalAlign=middle;resizable=0;points=[];fontSize=12;fontFamily=Helvetica;" vertex="1" connectable="0" parent="RfKFc-p_H9gRxyAXx0Jz-13">
          <mxGeometry x="-0.12" y="3" relative="1" as="geometry">
            <mxPoint as="offset" />
          </mxGeometry>
        </mxCell>
        <mxCell id="RfKFc-p_H9gRxyAXx0Jz-15" value="query任务" style="rounded=1;whiteSpace=wrap;html=1;fontFamily=Helvetica;fontSize=18;" vertex="1" parent="1">
          <mxGeometry x="289" y="270" width="100" height="50" as="geometry" />
        </mxCell>
        <mxCell id="RfKFc-p_H9gRxyAXx0Jz-16" value="MySQL" style="shape=cylinder3;whiteSpace=wrap;html=1;boundedLbl=1;backgroundOutline=1;size=15;fontFamily=Helvetica;fontSize=18;" vertex="1" parent="1">
          <mxGeometry x="439" y="460" width="120" height="90" as="geometry" />
        </mxCell>
        <mxCell id="RfKFc-p_H9gRxyAXx0Jz-17" value="" style="endArrow=classic;html=1;rounded=0;fontFamily=Helvetica;fontSize=12;entryX=0.145;entryY=0;entryDx=0;entryDy=4.35;entryPerimeter=0;exitX=0.89;exitY=0.98;exitDx=0;exitDy=0;exitPerimeter=0;" edge="1" parent="1" source="RfKFc-p_H9gRxyAXx0Jz-15" target="RfKFc-p_H9gRxyAXx0Jz-16">
          <mxGeometry width="50" height="50" relative="1" as="geometry">
            <mxPoint x="389" y="430" as="sourcePoint" />
            <mxPoint x="439" y="380" as="targetPoint" />
          </mxGeometry>
        </mxCell>
        <mxCell id="RfKFc-p_H9gRxyAXx0Jz-18" value="存储用户" style="edgeLabel;html=1;align=center;verticalAlign=middle;resizable=0;points=[];fontSize=12;fontFamily=Helvetica;" vertex="1" connectable="0" parent="RfKFc-p_H9gRxyAXx0Jz-17">
          <mxGeometry x="-0.1489" relative="1" as="geometry">
            <mxPoint as="offset" />
          </mxGeometry>
        </mxCell>
        <mxCell id="RfKFc-p_H9gRxyAXx0Jz-19" value="" style="edgeStyle=orthogonalEdgeStyle;rounded=0;orthogonalLoop=1;jettySize=auto;html=1;fontFamily=Helvetica;fontSize=12;entryX=0;entryY=0.5;entryDx=0;entryDy=0;" edge="1" parent="1" source="RfKFc-p_H9gRxyAXx0Jz-21" target="RfKFc-p_H9gRxyAXx0Jz-3">
          <mxGeometry relative="1" as="geometry" />
        </mxCell>
        <mxCell id="RfKFc-p_H9gRxyAXx0Jz-20" value="&lt;font style=&quot;font-size: 14px&quot;&gt;call&lt;/font&gt;" style="edgeLabel;html=1;align=center;verticalAlign=middle;resizable=0;points=[];fontSize=12;fontFamily=Helvetica;" vertex="1" connectable="0" parent="RfKFc-p_H9gRxyAXx0Jz-19">
          <mxGeometry x="0.3429" y="4" relative="1" as="geometry">
            <mxPoint as="offset" />
          </mxGeometry>
        </mxCell>
        <mxCell id="RfKFc-p_H9gRxyAXx0Jz-21" value="通知任务" style="rounded=1;whiteSpace=wrap;html=1;fontFamily=Helvetica;fontSize=18;" vertex="1" parent="1">
          <mxGeometry x="459" y="270" width="100" height="50" as="geometry" />
        </mxCell>
        <mxCell id="RfKFc-p_H9gRxyAXx0Jz-22" value="" style="endArrow=classic;html=1;rounded=0;fontFamily=Helvetica;fontSize=12;entryX=0.5;entryY=1;entryDx=0;entryDy=0;exitX=0.855;exitY=0;exitDx=0;exitDy=4.35;exitPerimeter=0;" edge="1" parent="1" source="RfKFc-p_H9gRxyAXx0Jz-16" target="RfKFc-p_H9gRxyAXx0Jz-3">
          <mxGeometry width="50" height="50" relative="1" as="geometry">
            <mxPoint x="449" y="400" as="sourcePoint" />
            <mxPoint x="499" y="350" as="targetPoint" />
          </mxGeometry>
        </mxCell>
        <mxCell id="RfKFc-p_H9gRxyAXx0Jz-23" value="查询用户集" style="edgeLabel;html=1;align=center;verticalAlign=middle;resizable=0;points=[];fontSize=12;fontFamily=Helvetica;" vertex="1" connectable="0" parent="RfKFc-p_H9gRxyAXx0Jz-22">
          <mxGeometry x="0.1977" y="-4" relative="1" as="geometry">
            <mxPoint as="offset" />
          </mxGeometry>
        </mxCell>
        <mxCell id="RfKFc-p_H9gRxyAXx0Jz-24" value="user" style="shape=umlActor;verticalLabelPosition=bottom;verticalAlign=top;html=1;outlineConnect=0;fontFamily=Helvetica;fontSize=14;" vertex="1" parent="1">
          <mxGeometry x="680" y="50" width="30" height="60" as="geometry" />
        </mxCell>
        <mxCell id="RfKFc-p_H9gRxyAXx0Jz-25" value="" style="endArrow=classic;html=1;rounded=0;fontFamily=Helvetica;fontSize=14;exitX=0.5;exitY=0;exitDx=0;exitDy=0;" edge="1" parent="1" source="RfKFc-p_H9gRxyAXx0Jz-3" target="RfKFc-p_H9gRxyAXx0Jz-24">
          <mxGeometry width="50" height="50" relative="1" as="geometry">
            <mxPoint x="670" y="240" as="sourcePoint" />
            <mxPoint x="720" y="190" as="targetPoint" />
          </mxGeometry>
        </mxCell>
        <mxCell id="RfKFc-p_H9gRxyAXx0Jz-26" value="Push &amp;amp; Email" style="edgeLabel;html=1;align=center;verticalAlign=middle;resizable=0;points=[];fontSize=14;fontFamily=Helvetica;" vertex="1" connectable="0" parent="RfKFc-p_H9gRxyAXx0Jz-25">
          <mxGeometry x="-0.3108" y="1" relative="1" as="geometry">
            <mxPoint as="offset" />
          </mxGeometry>
        </mxCell>
      </root>
    </mxGraphModel>
  </diagram>
</mxfile>
